<!-- Generated by IcoMoon.io -->
<svg version="1.1" xmlns="http://www.w3.org/2000/svg" width="656" height="1024" viewBox="0 0 656 1024">
<title></title>
<g id="icomoon-ignore">
</g>
<path fill="#fff" d="M473.973 809.459c-0.53 0.53-54.439 55.113-152.348 55.113-96.488 0-149.048-53.777-150.204-54.981-5.37-5.72-14.414-6.009-20.145-0.65-5.78 5.37-6.057 14.402-0.698 20.169 2.444 2.613 61.026 64.024 171.060 64.024 109.878 0 170.362-61.243 172.866-63.843 5.479-5.671 5.322-14.739-0.349-20.193-5.635-5.467-14.678-5.322-20.181 0.361z"></path>
<path fill="#fff" d="M473.973 940.324c-0.53 0.542-54.439 55.113-152.348 55.113-96.488 0-149.048-53.765-150.204-54.969-5.37-5.72-14.414-5.997-20.145-0.65-5.78 5.358-6.057 14.402-0.698 20.169 2.444 2.601 61.026 64.012 171.060 64.012 109.878 0 170.362-61.23 172.866-63.831 5.479-5.671 5.322-14.739-0.349-20.205-5.635-5.455-14.678-5.31-20.181 0.361z"></path>
<path fill="#fff" d="M328.85 0.265c-0.446-0.036-0.807-0.253-1.276-0.253-0.674 0-1.3 0.084-1.975 0.096-0.674-0.012-1.3-0.096-1.975-0.096-0.47 0-0.831 0.217-1.276 0.253-201.826 2.745-322.348 161.608-322.348 315.424 0 120.859 64.735 226.149 99.522 282.708 6.274 10.211 11.572 18.785 15.244 25.516 22.915 41.988 34.643 74.946 34.763 75.271 2.083 5.876 7.574 9.525 13.474 9.525 1.577 0 3.155-0.253 4.744-0.807 7.442-2.649 11.343-10.789 8.718-18.219-0.494-1.421-12.571-35.329-36.618-79.437-3.877-7.068-9.416-16.075-16.015-26.816-33.27-54.174-95.271-154.973-95.271-267.752 0-140.619 111.082-285.971 297.049-287.019 185.955 1.048 297.037 146.399 297.037 287.019 0 112.78-61.989 213.578-95.296 267.752-6.599 10.741-12.126 19.748-16.003 26.816-24.059 44.108-36.112 78.016-36.63 79.437-2.601 7.43 1.3 15.57 8.742 18.219 1.565 0.554 3.167 0.807 4.744 0.807 5.876 0 11.391-3.649 13.486-9.525 0.096-0.325 11.837-33.282 34.739-75.271 3.697-6.743 8.971-15.305 15.268-25.516 34.776-56.558 99.51-161.848 99.51-282.708-0.024-153.817-120.534-312.679-322.36-315.424z"></path>
</svg>
