<?xml version="1.0" encoding="utf-8"?>
<!-- Generator: Adobe Illustrator 15.1.0, SVG Export Plug-In . SVG Version: 6.00 Build 0)  -->
<!DOCTYPE svg PUBLIC "-//W3C//DTD SVG 1.1//EN" "http://www.w3.org/Graphics/SVG/1.1/DTD/svg11.dtd">
<svg version="1.1" xmlns="http://www.w3.org/2000/svg" xmlns:xlink="http://www.w3.org/1999/xlink" x="0px" y="0px"
	 width="48.031px" height="85.04px" viewBox="0 0 48.031 85.04" enable-background="new 0 0 48.031 85.04" xml:space="preserve">
<g id="Слой_1">
	<g>
		<path fill="#FFFFFF" d="M40.446,40.801c3.246-4.386,6.921-9.36,6.921-18.609c0-21.544-19.937-22.19-22.413-22.19
			c-0.004,0-0.004,0-0.011,0L21.862,0c-2.188,0-21.39,0.624-21.39,22.192c0,9.249,3.676,14.223,6.922,18.609
			c2.356,3.188,4.394,5.945,4.51,9.839c0.289,9.715,0,26.437,0,26.604l-0.007,0.389l0.199,0.326
			c0.075,0.116,1.807,2.875,5.393,3.232c0.175,0.017,0.35,0.03,0.529,0.048c0.192,0.282,2.631,3.703,6.252,3.796
			c0.055,0.003,0.106,0.003,0.158,0.003c2.247,0,4.352-1.271,6.258-3.778l-0.141-0.106c3.445-0.439,5.125-3.081,5.197-3.194
			l0.199-0.326l-0.007-0.389c0-0.168-0.288-16.89,0-26.604C36.052,46.746,38.089,43.989,40.446,40.801z M24.353,82.401
			c-0.924-0.021-1.758-0.439-2.438-0.938c0.9,0.023,1.511,0.027,1.566,0.027h1.463c0.055,0,0.776-0.004,1.886-0.052
			C25.991,82.075,25.157,82.426,24.353,82.401z M33.298,50.563c-0.262,8.879-0.049,23.551-0.008,26.284
			c-0.418,0.509-1.477,1.55-3.201,1.721c-2.823,0.282-5.121,0.285-5.146,0.285H23.48c-0.028,0-2.899-0.003-5.73-0.285
			c-1.731-0.171-2.789-1.216-3.201-1.717c0.041-2.734,0.254-17.405-0.007-26.288c-0.145-4.724-2.515-7.932-5.029-11.329
			C6.367,34.976,3.11,30.572,3.11,22.192C3.11,3.212,19.897,2.64,22.007,2.64c0.003,0,0.003,0,0.01,0l3.088-0.002
			c2.009,0,19.625,0.55,19.625,19.554c0,8.38-3.257,12.784-6.402,17.042C35.812,42.63,33.442,45.839,33.298,50.563z"/>
		<polygon fill="#FFFFFF" points="25.095,15.977 22.457,15.977 22.457,56.281 14.687,56.281 14.687,58.92 33.153,58.92 
			33.153,56.281 25.095,56.281 		"/>
		<rect x="14.687" y="63.904" fill="#FFFFFF" width="18.467" height="2.638"/>
		<rect x="14.687" y="70.938" fill="#FFFFFF" width="18.467" height="2.638"/>
	</g>
</g>
<g id="Режим_изоляции">
</g>
</svg>
