<!-- Generated by IcoMoon.io -->
<svg version="1.1" xmlns="http://www.w3.org/2000/svg" width="1024" height="1024" viewBox="0 0 1024 1024">
<title></title>
<g id="icomoon-ignore">
</g>
<path d="M999.52 673.246v-249.666h-32.102c11.56-13.402 18.363-28.634 19.892-45.613 4.202-46.119-31.705-87.071-33.246-88.793l-9.428-10.608-9.573 10.452c-25.311 27.623-36.883 55.92-34.306 84.085 1.999 22.252 12.463 39.327 21.675 50.453h-33.872v249.666h-22.409v12.8c0 35.221 18.219 73.356 46.684 89.793l-56.245 66.42h-125.941v-58.449c59.954-4.070 74.018-92.032 74.621-95.862l2.204-14.703h-24.468v-249.642h-32.138c11.596-13.402 18.399-28.634 19.929-45.613 4.178-46.119-31.741-87.071-33.27-88.793l-9.404-10.608-9.609 10.452c-25.311 27.623-36.883 55.92-34.306 84.085 2.035 22.252 12.499 39.327 21.675 50.453h-33.848v249.666h-22.409v12.8c0 38.617 22.012 80.497 55.427 93.622v62.579h-147.242c-6.538-15.208-19.941-26.636-36.281-30.706v-28.478c53.813-10.356 66.613-91.418 67.179-95.115l2.204-14.703h-24.468v-249.642h-32.102c11.596-13.402 18.363-28.634 19.892-45.613 4.046-44.613-29.104-84.049-32.704-88.155v-42.771l113.105-73.091v-66.179h-251.81v66.179l113.105 73.091v46.383h2.601c-22.602 26.238-33.27 53.006-30.874 79.702 2.035 22.252 12.535 39.327 21.675 50.453h-33.848v249.666h-22.409v12.8c0 41.446 25.239 86.867 62.856 96.163v29.345c-16.34 4.070-29.742 15.497-36.281 30.706h-153.636v-59.448c52.886-11.283 65.614-91.189 66.155-94.862l2.204-14.703h-24.468v-249.666h-32.078c11.572-13.402 18.339-28.634 19.868-45.613 4.202-46.119-31.669-87.071-33.21-88.793l-9.44-10.608-9.561 10.452c-25.335 27.623-36.883 55.92-34.342 84.085 1.999 22.252 12.499 39.327 21.675 50.453h-33.872v249.666h-22.397v12.8c0 41.82 25.732 87.553 63.88 96.331v59.882h-126.796l-53.319-62.916c43.819-18.977 54.812-87.998 55.354-91.394l2.204-14.703h-24.468v-249.642h-32.138c11.572-13.402 18.363-28.634 19.904-45.613 4.202-46.119-31.705-87.071-33.246-88.793l-9.428-10.608-9.573 10.452c-25.311 27.623-36.883 55.92-34.306 84.085 1.999 22.252 12.475 39.327 21.675 50.453h-33.884v249.666h-22.397v12.8c0 44.011 28.538 92.297 70.081 97.198l71.646 84.615h314.112c2.432 27.177 25.082 48.647 52.886 48.647 27.816 0 50.441-21.47 52.886-48.647h306.839l71.249-84.121c1.108 0.072 2.143 0.47 3.263 0.47 63.615 0 78.221-92.321 78.823-96.259l2.204-14.703h-24.468zM943.937 318.386c8.61 13.125 19.941 35.113 17.869 57.389-1.24 13.041-6.767 24.468-16.966 34.739-7.104-7.851-16.966-21.783-18.604-39.713-1.541-16.906 4.431-34.499 17.701-52.416zM914.158 449.192h59.749v217.648h-59.749v-217.648zM727.384 318.386c8.598 13.125 19.929 35.113 17.857 57.389-1.204 13.041-6.767 24.468-16.93 34.739-7.141-7.851-17.002-21.783-18.604-39.713-1.529-16.906 4.407-34.499 17.677-52.416zM697.642 449.192h59.749v217.648h-59.749v-217.648zM676.233 698.846h100.365c-5.936 21.711-20.615 59.749-50.152 59.749-25.239 0-45.504-29.814-50.213-59.749zM408.432 133.37h200.586v26.636l-100.293 64.819-100.293-64.819v-26.636zM510.856 318.386c8.598 13.125 19.941 35.113 17.869 57.389-1.204 13.041-6.791 24.468-16.966 34.739-7.104-7.851-16.966-21.783-18.568-39.713-1.529-16.906 4.395-34.499 17.665-52.416zM481.090 449.192h59.749v217.648h-59.749v-217.648zM294.34 318.386c8.598 13.125 19.941 35.113 17.869 57.389-1.24 13.041-6.803 24.468-17.002 34.739-7.068-7.851-16.942-21.783-18.568-39.713-1.541-16.906 4.431-34.499 17.701-52.416zM264.537 449.192h59.749v217.648h-59.749v-217.648zM243.188 698.846h100.293c-5.936 21.711-20.543 59.749-50.152 59.749-25.191 0-45.468-29.814-50.14-59.749zM77.787 318.386c8.598 13.125 19.941 35.113 17.869 57.389-1.24 13.041-6.767 24.468-16.966 34.739-7.104-7.851-16.978-21.783-18.604-39.713-1.541-16.906 4.431-34.499 17.701-52.416zM48.009 449.192h59.749v217.648h-59.749v-217.648zM26.636 698.846h100.329c-5.936 21.711-20.567 59.749-50.152 59.749-25.203 0-45.468-29.814-50.176-59.749zM459.716 698.846h100.329c-5.936 21.711-20.579 59.749-50.152 59.749-25.239 0-45.516-29.814-50.176-59.749zM508.725 890.894c-15.305 0-27.743-12.439-27.743-27.743s12.439-27.743 27.743-27.743 27.743 12.427 27.743 27.743c0 15.305-12.439 27.743-27.743 27.743zM942.973 758.596c-25.203 0-45.468-29.814-50.176-59.749h100.329c-5.948 21.711-20.579 59.749-50.152 59.749z"></path>
</svg>
