<?xml version="1.0" encoding="utf-8"?>
<!-- Generator: Adobe Illustrator 15.1.0, SVG Export Plug-In . SVG Version: 6.00 Build 0)  -->
<!DOCTYPE svg PUBLIC "-//W3C//DTD SVG 1.1//EN" "http://www.w3.org/Graphics/SVG/1.1/DTD/svg11.dtd">
<svg version="1.1" xmlns="http://www.w3.org/2000/svg" xmlns:xlink="http://www.w3.org/1999/xlink" x="0px" y="0px" width="85.04px"
	 height="85.04px" viewBox="0 0 85.04 85.04" enable-background="new 0 0 85.04 85.04" xml:space="preserve">
<g id="Слой_1">
	<g>
		<path fill="#111212" d="M18.105,26.216h7.96c0.419,0,0.758-0.339,0.758-0.758S26.485,24.7,26.066,24.7h-7.202v-8.34
			c0-0.419-0.339-0.758-0.758-0.758s-0.758,0.339-0.758,0.758v9.098C17.347,25.877,17.687,26.216,18.105,26.216z"/>
		<path fill="#111212" d="M79.534,42.627c-2.406-5.057-9.261-17.902-9.331-18.032l-0.214-0.401H53.121
			c-0.007-0.557-0.013-0.92-0.015-1.011c0-2.09-1.7-3.791-3.791-3.791H34.684c-2.293-7.11-8.958-12.257-16.832-12.257
			c-9.77,0-17.69,7.92-17.69,17.691c0,5.253,2.302,9.958,5.939,13.198v27.236c0,2.09,1.7,3.791,3.791,3.791h5.975
			c0.015-0.33,0.061-0.671,0.124-1.001c-0.015,0.227-0.034,0.455-0.034,0.686c0,5.538,4.506,10.046,10.045,10.046
			c5.433,0,9.86-4.339,10.029-9.73h17.217c0.169,5.392,4.596,9.73,10.029,9.73c5.433,0,9.86-4.339,10.029-9.73h8.103
			c2.091,0,3.791-1.701,3.791-3.791V50.615L79.534,42.627z M69.08,25.71c1.102,2.069,6.165,11.604,8.596,16.554l-22.427,0.011
			c-0.023,0.004-0.206,0.033-0.454,0.033c-0.413,0-0.771-0.08-1.006-0.224c-0.185-0.113-0.43-0.335-0.43-0.958
			c0-0.174-0.146-10.5-0.218-15.416H69.08z M1.678,24.827c0-8.919,7.256-16.175,16.174-16.175c8.919,0,16.175,7.256,16.175,16.175
			c0,8.918-7.256,16.174-16.175,16.174C8.934,41.001,1.678,33.745,1.678,24.827z M26.002,77.266c-4.703,0-8.529-3.826-8.529-8.529
			s3.826-8.529,8.529-8.529s8.529,3.826,8.529,8.529S30.706,77.266,26.002,77.266z M63.278,77.266c-4.703,0-8.529-3.826-8.529-8.529
			s3.826-8.529,8.529-8.529c4.702,0,8.529,3.826,8.529,8.529S67.98,77.266,63.278,77.266z M83.685,65.261
			c0,1.255-1.021,2.274-2.274,2.274h-8.165c-0.597-4.974-4.835-8.844-9.967-8.844c-5.133,0-9.371,3.87-9.968,8.844H35.97
			c-0.595-4.974-4.835-8.844-9.967-8.844s-9.372,3.87-9.967,8.844H9.892c-1.254,0-2.274-1.02-2.274-2.274V39.239
			c2.891,2.057,6.416,3.278,10.235,3.278c9.771,0,17.691-7.92,17.691-17.69c0-1.349-0.164-2.656-0.45-3.917h14.223
			c1.255,0,2.274,1.02,2.274,2.286c0,0,0.252,17.629,0.254,17.931c0,1.275,0.626,1.927,1.151,2.25
			c1.022,0.626,2.363,0.425,2.417,0.404h23.079l5.193,7.318V65.261z"/>
	</g>
</g>
<g id="Режим_изоляции">
</g>
</svg>
