<!-- Generated by IcoMoon.io -->
<svg version="1.1" xmlns="http://www.w3.org/2000/svg" width="1024" height="1024" viewBox="0 0 1024 1024">
<title></title>
<g id="icomoon-ignore">
</g>
<path d="M742.821 16.954l-5.226-4.744h-434.14l-303.455 303.455v420.678l281.167 281.167 5.226 4.732h428.613l1.806 1.758 1.746-1.758h1.975l303.455-303.419v-420.69l-281.167-281.179zM794.828 547.534l158.284 159.151-206.016 2.107v-115.056l47.732-46.203zM747.084 548.678v-49.129l24.902 25.034-24.902 24.095zM747.084 453.659v-115.104h217.094l-168.929 163.522-48.166-48.418zM747.084 306.189v-239.202l239.178 239.19h-239.178zM322.974 640.433l73.826 71.899-74.259 0.759 0.433-72.658zM323.227 595.507l0.759-132.178 127.013-124.773h135.959l127.771 128.47v112.972l-134.791 130.468-137.212 1.433-119.499-116.392zM291.402 495.299l-0.373 68.865-34.98-34.113 35.354-34.751zM232.832 507.46l-173.408-168.905h232.868l-0.638 111.13-58.822 57.775zM437.765 306.189h-112.936l1.3-229.798 170.807 171.71-59.171 58.088zM519.767 271.040l34.98 35.137h-70.803l35.823-35.137zM404.808 338.556l-80.569 79.16 0.421-79.16h80.148zM632.57 338.556h82.146v82.568l-82.146-82.568zM714.717 625.093v84.037l-87.746 0.831 87.746-84.868zM714.717 306.189h-114.345l-57.498-57.835 171.843-168.784v226.619zM520.020 225.403l-179.898-180.826h364.011l-184.113 180.826zM292.461 306.189h-237.215l238.564-238.564-1.349 238.564zM209.737 530.122l-177.37 174.191v-346.925l177.37 172.734zM232.953 552.736l57.823 56.342-0.59 104.339-223.223 2.312 165.991-162.992zM322.372 745.446l107.337-1.096 57.437 55.956-165.991 160.656 1.216-215.517zM475.611 743.929l70.538-0.759-35.727 34.643-34.812-33.884zM593.183 742.713l121.546-1.228v235.313l-181.139-176.394 59.593-57.69zM747.084 741.148l210.965-2.192-210.965 210.965v-208.774zM818.080 525.029l173.541-167.977v342.469l-173.541-174.492zM57.654 748.192l232.363-2.408-1.349 233.471-231.014-231.062zM337.809 989.863l172.517-166.954 171.421 166.954h-343.938z"></path>
</svg>
