<!-- Generated by IcoMoon.io -->
<svg version="1.1" xmlns="http://www.w3.org/2000/svg" width="1024" height="1024" viewBox="0 0 1024 1024">
<title></title>
<g id="icomoon-ignore">
</g>
<path d="M963.98 451.991h-715.367l262.040-262.040c29.304-29.304 29.304-76.772 0-106.083s-76.772-29.304-106.083 0l-382.595 382.595c-14.211 14.211-22.13 33.524-21.978 53.594 0.144 20.1 8.352 39.296 22.766 53.305l378.845 367.589c14.594 14.125 33.408 21.162 52.251 21.162 19.572 0 39.123-7.622 53.833-22.795 28.871-29.716 28.163-77.191-1.582-106.083l-269.214-261.216h727.093c33.177 0 60.017-26.877 60.017-60.017-0.007-33.141-26.848-60.010-60.024-60.010z"></path>
</svg>
