<?xml version="1.0" encoding="utf-8"?>
<!-- Generator: Adobe Illustrator 15.1.0, SVG Export Plug-In . SVG Version: 6.00 Build 0)  -->
<!DOCTYPE svg PUBLIC "-//W3C//DTD SVG 1.1//EN" "http://www.w3.org/Graphics/SVG/1.1/DTD/svg11.dtd">
<svg version="1.1" id="Слой_1" xmlns="http://www.w3.org/2000/svg" xmlns:xlink="http://www.w3.org/1999/xlink" x="0px" y="0px"
	 width="144.75px" height="144px" viewBox="0 0 144.75 144" enable-background="new 0 0 144.75 144" xml:space="preserve">
<path fill="#FFFFFF" d="M86.66,72.118l53.973-53.976c3.865-3.862,3.865-10.131,0-13.993c-3.865-3.865-10.127-3.865-13.992,0
	L72.667,58.125L18.691,4.149c-3.865-3.865-10.127-3.865-13.992,0c-3.865,3.862-3.865,10.13,0,13.993l53.976,53.976L4.702,126.091
	c-3.865,3.865-3.865,10.127,0,13.992c1.933,1.933,4.465,2.899,6.997,2.899s5.063-0.967,6.996-2.899L72.667,86.11l53.973,53.973
	c1.933,1.933,4.464,2.899,6.996,2.899c2.531,0,5.063-0.967,6.996-2.899c3.865-3.865,3.865-10.127,0-13.992L86.66,72.118z"/>
</svg>
