<?xml version="1.0" encoding="utf-8"?>
<!-- Generator: Adobe Illustrator 15.1.0, SVG Export Plug-In . SVG Version: 6.00 Build 0)  -->
<!DOCTYPE svg PUBLIC "-//W3C//DTD SVG 1.1//EN" "http://www.w3.org/Graphics/SVG/1.1/DTD/svg11.dtd">
<svg version="1.1" xmlns="http://www.w3.org/2000/svg" xmlns:xlink="http://www.w3.org/1999/xlink" x="0px" y="0px" width="85.04px"
	 height="85.04px" viewBox="0 0 85.04 85.04" enable-background="new 0 0 85.04 85.04" xml:space="preserve">
<g id="Слой_1">
	<path fill="#1C1C1C" d="M50.175,71.44c-0.427-3.955-3.745-6.66-8.418-6.66c-0.111,0-0.211,0.021-0.321,0.024L24.181,46.723v-2.778
		H24.16c3.036-1.526,5.125-4.661,5.125-8.291c0-2.289-0.833-4.382-2.207-6l19.298-14.51l-0.375-0.502l2.598,2.6
		c0.285,0.286,0.614,0.508,0.96,0.693c-0.485,2.801-1.651,12.092,3.226,16.841l0.6,0.583l6.469-6.425
		c1.171,1.026,2.654,1.672,4.297,1.672c3.723,0,6.75-3.171,6.75-7.069c0-1.586-0.527-3.03-1.375-4.208l5.599-5.561l-0.307-0.561
		c-0.216-0.397-2.396-3.878-11.992-3.878c-1.396,0-2.92,0.093-4.504,0.243c-0.194-0.449-0.434-0.883-0.801-1.25l-4.712-4.71
		c-1.604-1.606-4.408-1.606-6.013,0l-2.907,2.907c-1.658,1.657-1.658,4.355,0,6.012l1.346,1.347L25.938,28.383l0.322,0.429
		C24.609,27.3,22.417,26.37,20,26.37c-5.127,0-9.284,4.156-9.284,9.284c0,5.127,4.157,9.283,9.284,9.283
		c0.86,0,1.689-0.126,2.48-0.344v2.811l16.862,17.671c-3.375,0.768-5.656,3.139-6.004,6.366H0v11.48h85.039V71.44H50.175z
		 M69.199,23.535c0,2.96-2.266,5.368-5.05,5.368c-1.172,0-2.235-0.449-3.093-1.166l7.242-7.192
		C68.852,21.402,69.199,22.419,69.199,23.535z M72.911,13.567L53.405,32.94c-3.866-4.673-2.382-13.631-2.079-15.217l6.547-6.413
		c1.761-0.187,3.425-0.282,4.951-0.282C69.322,11.028,71.991,12.73,72.911,13.567z M45.091,7.719l2.906-2.906
		c0.481-0.482,1.123-0.748,1.804-0.748c0.682,0,1.322,0.266,1.804,0.748l4.711,4.71c0.168,0.167,0.271,0.366,0.377,0.562
		l-6.425,6.293c-0.168-0.095-0.327-0.201-0.467-0.341l-4.71-4.711C44.094,10.332,44.094,8.714,45.091,7.719z M12.418,35.653
		c0-4.182,3.401-7.583,7.583-7.583c4.182,0,7.583,3.401,7.583,7.583c0,4.181-3.401,7.583-7.583,7.583
		C15.819,43.236,12.418,39.834,12.418,35.653z M41.756,66.48c3.13,0,6.25,1.56,6.709,4.96H35.046
		C35.507,68.04,38.626,66.48,41.756,66.48z M1.701,73.142H5.37l-3.669,3.669V73.142z M1.701,81.22v-2.605l5.473-5.473h3.724
		L2.818,81.22H1.701z M4.622,81.22l8.079-8.078h3.511L8.133,81.22H4.622z M9.937,81.22l8.079-8.078h2.873l-8.079,8.078H9.937z
		 M14.614,81.22l8.079-8.078h3.299l-8.079,8.078H14.614z M19.717,81.22l8.079-8.078h3.511l-8.079,8.078H19.717z M25.032,81.22
		l8.079-8.078h2.874l-8.079,8.078H25.032z M29.709,81.22l8.079-8.078h3.724l-8.079,8.078H29.709z M35.236,81.22l8.079-8.078h3.511
		l-8.079,8.078H35.236z M40.551,81.22l8.079-8.078h2.874l-8.079,8.078H40.551z M45.229,81.22l8.079-8.078h3.298l-8.078,8.078H45.229
		z M50.331,81.22l8.078-8.078h3.512l-8.079,8.078H50.331z M55.646,81.22l8.079-8.078h2.873L58.52,81.22H55.646z M60.323,81.22
		l8.078-8.078h3.618L63.94,81.22H60.323z M65.744,81.22l8.079-8.078h3.511l-8.078,8.078H65.744z M71.06,81.22l8.078-8.078h2.874
		l-8.079,8.078H71.06z M83.339,81.22h-2.394l2.394-2.394V81.22z M83.339,77.022l-4.197,4.197h-3.405l7.603-7.602V77.022z"/>
</g>
<g id="Режим_изоляции">
</g>
</svg>
