<?xml version="1.0" encoding="utf-8"?>
<!-- Generator: Adobe Illustrator 15.1.0, SVG Export Plug-In . SVG Version: 6.00 Build 0)  -->
<!DOCTYPE svg PUBLIC "-//W3C//DTD SVG 1.1//EN" "http://www.w3.org/Graphics/SVG/1.1/DTD/svg11.dtd">
<svg version="1.1" xmlns="http://www.w3.org/2000/svg" xmlns:xlink="http://www.w3.org/1999/xlink" x="0px" y="0px" width="85.04px"
	 height="85.04px" viewBox="0 0 85.04 85.04" enable-background="new 0 0 85.04 85.04" xml:space="preserve">
<g id="Слой_1">
	<g>
		<path fill="#1C1C1C" d="M42.752,37.864c-2.261,0-4.1,1.839-4.1,4.099v3.279h-3.616L13.873,66.697h71.286L63.994,45.242h-3.068
			v-3.279c0-2.26-1.839-4.099-4.1-4.099h-6.831V16.659c-0.002-0.054-0.242-5.305-7.106-5.305c-6.843,0-7.236,5.363-7.241,5.559
			v5.919c0,1.441-0.415,2.532-1.233,3.239c-1.583,1.371-4.226,1.01-4.37,0.996H11.188V1.705H0.119v81.988h11.068V28.708
			l18.737-0.009c0.138,0.02,3.395,0.481,5.555-1.379c1.2-1.034,1.808-2.544,1.808-4.487l-0.001-5.965
			c0.009-0.159,0.288-3.874,5.603-3.874c5.148,0,5.449,3.34,5.467,3.689v21.18H42.752z M1.759,82.054v-2.31l2.308,2.31H1.759z
			 M5.805,82.054l-4.046-4.049v-3.282l7.329,7.331H5.805z M9.547,80.772l-7.789-7.789v-2.771l7.789,7.789V80.772z M9.547,76.263
			l-7.789-7.788v-3.386l7.789,7.789V76.263z M9.547,71.139L1.759,63.35v-3.487l7.789,7.789V71.139z M9.547,65.912l-7.789-7.789
			v-2.77l7.789,7.788V65.912z M9.547,61.403l-7.789-7.789v-3.386l7.789,7.789V61.403z M9.547,56.278L1.759,48.49V45.31l7.789,7.789
			V56.278z M9.547,51.359l-7.789-7.788v-2.77l7.789,7.788V51.359z M9.547,46.851l-7.789-7.789v-3.385l7.789,7.789V46.851z
			 M9.547,41.727l-7.789-7.789v-3.59l7.789,7.789V41.727z M9.547,36.397l-7.789-7.789v-2.771l7.789,7.789V36.397z M9.547,31.888
			L1.759,24.1v-3.385l7.789,7.789V31.888z M9.547,26.764l-7.789-7.789v-3.18l7.789,7.789V26.764z M9.547,21.845l-7.789-7.789v-2.771
			l7.789,7.789V21.845z M9.547,17.335L1.759,9.547V6.162l7.789,7.789V17.335z M9.547,12.211L1.759,4.422V3.345h2.512l5.276,5.276
			V12.211z M9.547,6.882L6.01,3.345h3.537V6.882z M81.238,65.057H17.792l17.93-18.175h27.586L81.238,65.057z M56.826,39.503
			c1.356,0,2.46,1.103,2.46,2.459v3.279H40.293v-3.279c0-1.356,1.103-2.459,2.459-2.459h5.603h1.64H56.826z"/>
		<path fill="#1C1C1C" d="M49.652,77.899c3.602,0,6.522-2.767,6.838-6.283H42.815C43.13,75.133,46.051,77.899,49.652,77.899z"/>
	</g>
</g>
<g id="Режим_изоляции">
</g>
</svg>
