<!-- Generated by IcoMoon.io -->
<svg version="1.1" xmlns="http://www.w3.org/2000/svg" width="1029" height="1024" viewBox="0 0 1029 1024">
<title></title>
<g id="icomoon-ignore">
</g>
<path d="M616.249 512.839l383.808-383.829c27.484-27.463 27.484-72.043 0-99.506-27.484-27.484-72.014-27.484-99.499 0l-383.815 383.829-383.829-383.829c-27.484-27.484-72.014-27.484-99.499 0-27.484 27.463-27.484 72.036 0 99.506l383.829 383.829-383.808 383.808c-27.484 27.484-27.484 72.014 0 99.499 13.746 13.746 31.751 20.615 49.756 20.615s36.004-6.876 49.749-20.615l383.801-383.808 383.808 383.808c13.746 13.746 31.744 20.615 49.749 20.615 17.998 0 36.004-6.876 49.749-20.615 27.484-27.484 27.484-72.014 0-99.499l-383.801-383.808z"></path>
</svg>
