<!-- Generated by IcoMoon.io -->
<svg version="1.1" xmlns="http://www.w3.org/2000/svg" width="1024" height="1024" viewBox="0 0 1024 1024">
<title></title>
<g id="icomoon-ignore">
</g>
<path d="M451.992 963.984v-715.373l-262.039 262.039c-29.304 29.304-76.771 29.304-106.083 0s-29.304-76.771 0-106.083l382.594-382.587c14.211-14.219 33.524-22.13 53.594-21.978 20.1 0.145 39.297 8.345 53.305 22.765l367.588 378.844c14.124 14.594 21.162 33.408 21.162 52.243 0 19.579-7.622 39.123-22.795 53.833-29.716 28.863-77.191 28.155-106.083-1.582l-261.216-269.221v727.099c0 33.177-26.876 60.018-60.018 60.018-33.14-0.007-60.010-26.841-60.010-60.018z"></path>
</svg>
