<?xml version="1.0" encoding="utf-8"?>
<!-- Generator: Adobe Illustrator 15.1.0, SVG Export Plug-In . SVG Version: 6.00 Build 0)  -->
<!DOCTYPE svg PUBLIC "-//W3C//DTD SVG 1.1//EN" "http://www.w3.org/Graphics/SVG/1.1/DTD/svg11.dtd">
<svg version="1.1" id="Слой_1" xmlns="http://www.w3.org/2000/svg" xmlns:xlink="http://www.w3.org/1999/xlink" x="0px" y="0px"
	 width="85.04px" height="85.04px" viewBox="0 0 85.04 85.04" enable-background="new 0 0 85.04 85.04" xml:space="preserve">
<g>
	<path fill="#111212" d="M85.04,0H0.957v72.912h18.83l-3.775,5.903c-0.293,0.458-0.273,1.06,0.05,1.497
		c0.319,0.434,0.896,0.634,1.418,0.489l9.389-2.597l3.672,6.188c0.265,0.444,0.765,0.701,1.297,0.637
		c0.515-0.061,0.95-0.422,1.104-0.921l3.71-11.986l0.402,0.096c4.042,0.974,7.915,0.913,11.901-0.154l0.408-0.108l3.763,12.153
		c0.154,0.499,0.589,0.86,1.109,0.923c0.504,0.052,1.028-0.194,1.292-0.641l3.672-6.187l9.393,2.598
		c0.11,0.029,0.22,0.036,0.336,0.044c0.783-0.011,1.373-0.593,1.373-1.32c0-0.337-0.126-0.658-0.357-0.902l-3.66-5.712H85.04V0z
		 M31.296,80.481l-2.668-4.496c-0.298-0.5-0.922-0.755-1.491-0.6l-7.036,1.946l6.661-10.415l0.384,0.323
		c1.965,1.647,4.187,2.974,6.605,3.938l0.378,0.151L31.296,80.481z M42.705,70.266c-11.916,0-21.609-9.691-21.609-21.608
		c0-11.915,9.693-21.608,21.609-21.608s21.609,9.693,21.609,21.608C64.313,60.574,54.62,70.266,42.705,70.266z M58.932,75.386
		c-0.555-0.152-1.19,0.1-1.488,0.6l-2.67,4.496l-2.901-9.372l0.365-0.154c2.313-0.992,4.476-2.367,6.437-4.088l0.386-0.34
		l6.911,10.805L58.932,75.386z M82.395,70.266H64.593l-3.632-5.675l0.21-0.248c3.733-4.387,5.788-9.956,5.788-15.686
		c0-13.374-10.88-24.254-24.254-24.254c-13.374,0-24.255,10.881-24.255,24.254c0,5.924,2.191,11.643,6.168,16.104l0.223,0.25
		l-2.797,4.372h0.021l-0.131,0.172l-0.454,0.71H3.603V2.646h78.792V70.266z"/>
	<rect x="15.656" y="8.527" fill="#111212" width="54.979" height="2.646"/>
	<rect x="29.181" y="15.73" fill="#111212" width="27.194" height="2.646"/>
	<path fill="#111212" d="M56.665,36.312l-3.997-0.247l-8.931-4.466c0.026,0.014-0.028,0.005-0.091-0.02
		c-0.073-0.03-0.162-0.049-0.262-0.068c-0.096-0.018-0.166-0.034-0.239-0.034s-0.143,0.016-0.215,0.03
		c-0.123,0.023-0.212,0.042-0.287,0.073l-0.147,0.042l-9.048,4.489l-3.823,0.202c-0.703,0.037-1.253,0.618-1.253,1.321v17.198
		c0,0.21,0.052,0.422,0.149,0.609c0.134,0.261,3.411,6.406,14.064,11.394c0.25,0.086,0.412,0.124,0.559,0.124l-0.001,0.441
		l0.005-0.441c0.146,0,0.309-0.038,0.496-0.113l0.157-0.038c10.561-4.96,13.837-11.105,13.971-11.366
		c0.097-0.188,0.148-0.399,0.148-0.609V37.633C57.919,36.929,57.367,36.349,56.665,36.312z M55.272,54.473l-0.07,0.11
		c-0.813,1.257-4.07,5.657-11.862,9.484l-0.195,0.095l-0.195-0.095c-7.792-3.827-11.05-8.228-11.862-9.484l-0.071-0.108V38.888
		l2.936-0.154c0.184-0.01,0.359-0.056,0.522-0.138l8.669-4.334l8.668,4.334c0.164,0.082,0.34,0.127,0.524,0.138l2.935,0.154V54.473z
		"/>
	<polygon fill="#111212" points="41.564,53.804 37.557,49.797 35.687,51.668 41.86,57.842 51.441,44.95 49.317,43.371 	"/>
</g>
</svg>
