<?xml version="1.0" encoding="utf-8"?>
<!-- Generator: Adobe Illustrator 15.1.0, SVG Export Plug-In . SVG Version: 6.00 Build 0)  -->
<!DOCTYPE svg PUBLIC "-//W3C//DTD SVG 1.1//EN" "http://www.w3.org/Graphics/SVG/1.1/DTD/svg11.dtd">
<svg version="1.1" id="Слой_1" xmlns="http://www.w3.org/2000/svg" xmlns:xlink="http://www.w3.org/1999/xlink" x="0px" y="0px"
	 width="141.732px" height="141.732px" viewBox="0 0 141.732 141.732" enable-background="new 0 0 141.732 141.732"
	 xml:space="preserve">
<g>
	<path fill="#E9E4E4" d="M70.866,17.791c29.266,0,53.075,23.809,53.075,53.077c0,29.268-23.809,53.076-53.075,53.076
		c-29.266,0-53.076-23.809-53.076-53.076C17.79,41.6,41.601,17.791,70.866,17.791 M70.866,0C31.727,0,0,31.728,0,70.868
		c0,39.139,31.728,70.867,70.867,70.867c39.141,0,70.866-31.729,70.866-70.867C141.732,31.728,110.007,0,70.866,0L70.866,0z"/>
	<polygon points="74.72,70.645 74.72,50.112 74.72,48.036 68.938,48.036 68.938,70.645 46.328,70.645 46.328,76.426 68.938,76.426 
		68.938,99.038 70.272,99.038 74.72,99.038 74.72,76.426 97.332,76.426 97.332,70.645 	"/>
</g>
</svg>
