<!-- Generated by IcoMoon.io -->
<svg version="1.1" xmlns="http://www.w3.org/2000/svg" width="1024" height="1024" viewBox="0 0 1024 1024">
<title></title>
<g id="icomoon-ignore">
</g>
<path d="M997.184 695.788c0-79.75-64.662-144.4-144.412-144.4s-144.4 64.65-144.4 144.4c0 77.872 61.736 140.884 138.91 143.883-6.274 22.879-34.583 102.027-126.808 96.825-100.028-4.323-162.137-51.742-181.452-136.417 0.277-1.602 0.819-2.95 1.108-4.552 0.71-4.022-0.373-7.875-2.42-11.078v-28.273c0-0.542-0.241-1.036-0.325-1.565 72.417-7.791 128.987-68.383 128.987-142.847 0-74.356-56.414-134.864-128.662-142.799v-324.299c70.49-12.102 112.623-118.415 114.465-123.195 1.878-4.865 1.24-10.319-1.686-14.606-2.962-4.299-7.803-6.864-13.017-6.864h-231.050c-5.503 0-10.584 2.854-13.414 7.526-2.878 4.684-3.119 10.5-0.614 15.389 36.064 70.647 74.259 111.010 113.803 120.595v325.455c-72.248 7.935-128.662 68.455-128.662 142.799 0 74.476 56.57 135.056 128.987 142.847-0.084 0.53-0.325 1.024-0.325 1.565v26.744c-1.313 2.794-2.059 5.876-1.517 9.115 0.361 2.179 1.108 4.022 1.517 6.153v3.745c-18.917 85.747-81.195 133.708-181.873 138.055-99.161 5.407-124.929-88.661-127.916-101.376 72.248-7.959 128.614-68.479 128.614-142.811 0-79.75-64.662-144.4-144.412-144.4-79.762 0-144.412 64.65-144.412 144.4 0 74.464 56.583 135.068 128.987 142.847-0.169 1.529-0.325 2.998-0.036 4.564 0.253 1.3 26.587 128.433 152.203 128.433 2.745 0 5.539-0.024 8.369-0.169 82.785-3.6 144.087-34.944 180.476-89.13v125.881c0 8.706 7.056 15.762 15.75 15.762 8.706 0 15.762-7.056 15.762-15.762v-130.733c36.269 55.005 97.897 86.855 181.379 90.503 2.83 0.12 5.623 0.169 8.369 0.169 125.58 0 151.95-127.097 152.203-128.409 0.169-0.771-0.036-1.469 0-2.264 66.854-12.583 117.524-71.129 117.524-141.703zM67.721 695.788c0-62.23 50.634-112.9 112.9-112.9s112.9 50.67 112.9 112.9c0 62.242-50.622 112.912-112.9 112.912s-112.9-50.67-112.9-112.912zM432.84 31.512h180.224c-17.316 34.149-50.345 82.857-88.408 82.857-29.008 0-60.508-28.538-91.816-82.857zM409.046 611.775c0-62.254 50.622-112.9 112.888-112.9 62.278 0 112.912 50.646 112.912 112.9 0 62.242-50.634 112.9-112.912 112.9-62.266 0-112.888-50.658-112.888-112.9zM852.771 808.7c-62.278 0-112.9-50.67-112.9-112.912 0-62.23 50.622-112.9 112.9-112.9s112.9 50.67 112.9 112.9c0 62.242-50.622 112.912-112.9 112.912z"></path>
<path d="M184.558 649.886c-6.153-6.153-16.123-6.153-22.277 0l-22.325 22.252c-6.153 6.141-6.201 16.16-0.036 22.313 3.071 3.083 7.141 4.6 11.162 4.6s8.032-1.517 11.114-4.6l22.313-22.24c6.153-6.165 6.201-16.172 0.048-22.325z"></path>
<path d="M834.444 649.886l-22.325 22.252c-6.165 6.141-6.201 16.16-0.048 22.313 3.083 3.083 7.141 4.6 11.162 4.6s8.044-1.517 11.126-4.6l22.325-22.24c6.153-6.153 6.189-16.16 0.036-22.325-6.153-6.153-16.123-6.153-22.277 0z"></path>
<path d="M520.634 565.873c-6.153-6.165-16.123-6.141-22.277-0.024l-22.325 22.252c-6.153 6.165-6.189 16.172-0.036 22.325 3.083 3.083 7.141 4.6 11.162 4.6s8.044-1.517 11.114-4.6l22.325-22.24c6.153-6.153 6.189-16.172 0.036-22.313z"></path>
</svg>
