<?xml version="1.0" encoding="utf-8"?>
<!-- Generator: Adobe Illustrator 15.1.0, SVG Export Plug-In . SVG Version: 6.00 Build 0)  -->
<!DOCTYPE svg PUBLIC "-//W3C//DTD SVG 1.1//EN" "http://www.w3.org/Graphics/SVG/1.1/DTD/svg11.dtd">
<svg version="1.1" xmlns="http://www.w3.org/2000/svg" xmlns:xlink="http://www.w3.org/1999/xlink" x="0px" y="0px" width="85.04px"
	 height="85.04px" viewBox="0 0 85.04 85.04" enable-background="new 0 0 85.04 85.04" xml:space="preserve">
<g id="Слой_1">
</g>
<g id="Режим_изоляции">
	<g>
		<circle fill="#FFFFFF" cx="42.222" cy="43.303" r="3.604"/>
		<g>
			<circle fill="#FFFFFF" cx="35.488" cy="31.864" r="3.604"/>
			<circle fill="#FFFFFF" cx="30.159" cy="43.145" r="3.604"/>
			<circle fill="#FFFFFF" cx="35.484" cy="54.74" r="3.604"/>
			<circle fill="#FFFFFF" cx="48.96" cy="31.864" r="3.604"/>
			<path fill="#FFFFFF" d="M50.685,43.145c0,1.99,1.616,3.605,3.606,3.605s3.602-1.615,3.602-3.605c0-1.99-1.611-3.603-3.602-3.603
				S50.685,41.155,50.685,43.145z"/>
			<circle fill="#FFFFFF" cx="48.964" cy="54.74" r="3.604"/>
		</g>
		<g>
			<circle fill="#FFFFFF" cx="63.532" cy="31.708" r="3.604"/>
			<path fill="#FFFFFF" d="M65.256,42.989c0,1.99,1.615,3.607,3.605,3.607s3.603-1.617,3.603-3.607c0-1.99-1.612-3.602-3.603-3.602
				S65.256,40.999,65.256,42.989z"/>
			<circle fill="#FFFFFF" cx="63.535" cy="54.586" r="3.604"/>
			<circle fill="#FFFFFF" cx="54.133" cy="64.612" r="3.604"/>
			<path fill="#FFFFFF" d="M42.852,65.279c-1.99,0-3.606,1.615-3.606,3.605s1.616,3.602,3.606,3.602
				c1.991,0,3.602-1.611,3.602-3.602S44.843,65.279,42.852,65.279z"/>
			<circle fill="#FFFFFF" cx="31.255" cy="64.616" r="3.604"/>
			<circle fill="#FFFFFF" cx="21.541" cy="54.9" r="3.604"/>
			<path fill="#FFFFFF" d="M19.817,43.621c0-1.99-1.616-3.606-3.606-3.606s-3.602,1.616-3.602,3.606
				c0,1.991,1.612,3.602,3.602,3.602S19.817,45.611,19.817,43.621z"/>
			<circle fill="#FFFFFF" cx="21.537" cy="32.026" r="3.604"/>
			<circle fill="#FFFFFF" cx="30.94" cy="21.997" r="3.604"/>
			<circle fill="#FFFFFF" cx="42.221" cy="17.492" r="3.604"/>
			<circle fill="#FFFFFF" cx="53.817" cy="21.994" r="3.604"/>
		</g>
		<g>
			<g>
				<path fill="#FFFFFF" d="M5.903,49.363c-1.869-0.68-3.944,0.287-4.619,2.152c-0.683,1.873,0.279,3.943,2.152,4.619
					c1.869,0.684,3.94-0.279,4.616-2.152C8.738,52.117,7.765,50.039,5.903,49.363z"/>
			</g>
			<g>
				<path fill="#FFFFFF" d="M5.804,36.475C4.28,35.199,2,35.399,0.729,36.917c-1.285,1.53-1.087,3.804,0.441,5.081
					c1.523,1.281,3.8,1.082,5.071-0.444C7.526,40.031,7.325,37.75,5.804,36.475z"/>
			</g>
			<g>
				<path fill="#FFFFFF" d="M10.119,24.329c-0.995-1.72-3.206-2.312-4.921-1.318c-1.729,0.997-2.32,3.202-1.322,4.924
					c0.995,1.726,3.202,2.315,4.917,1.316C10.523,28.262,11.114,26.05,10.119,24.329z"/>
			</g>
			<g>
				<path fill="#FFFFFF" d="M18.33,14.393c-0.349-1.957-2.222-3.268-4.175-2.921c-1.965,0.345-3.275,2.214-2.927,4.175
					c0.345,1.961,2.218,3.27,4.171,2.919C17.364,18.226,18.675,16.35,18.33,14.393z"/>
			</g>
			<g>
				<path fill="#FFFFFF" d="M29.441,7.864c0.342-1.959-0.969-3.83-2.923-4.173c-1.964-0.347-3.833,0.962-4.179,2.923
					s0.966,3.83,2.923,4.169C27.224,11.135,29.096,9.821,29.441,7.864z"/>
			</g>
			<g>
				<path fill="#FFFFFF" d="M42.118,5.528c0.991-1.723,0.4-3.929-1.318-4.921C39.07-0.391,36.867,0.2,35.872,1.926
					c-0.995,1.724-0.4,3.929,1.322,4.917C38.916,7.845,41.123,7.25,42.118,5.528z"/>
			</g>
			<g>
				<path fill="#FFFFFF" d="M54.827,7.669c1.52-1.278,1.722-3.553,0.444-5.073c-1.282-1.53-3.555-1.73-5.083-0.448
					c-1.523,1.28-1.718,3.555-0.437,5.073C51.026,8.752,53.303,8.949,54.827,7.669z"/>
			</g>
			<g>
				<path fill="#FFFFFF" d="M66.038,14.027c1.865-0.68,2.834-2.749,2.151-4.614c-0.68-1.876-2.747-2.84-4.619-2.159
					c-1.869,0.681-2.831,2.752-2.148,4.618C62.098,13.746,64.169,14.71,66.038,14.027z"/>
			</g>
			<g>
				<path fill="#FFFFFF" d="M74.399,23.837c1.986,0,3.602-1.612,3.599-3.6c0.003-1.996-1.608-3.608-3.603-3.608
					c-1.986,0.002-3.603,1.618-3.599,3.604C70.793,22.227,72.409,23.841,74.399,23.837z"/>
			</g>
			<g>
				<path fill="#FFFFFF" d="M78.901,35.915c1.865,0.681,3.937-0.281,4.611-2.152c0.688-1.873-0.275-3.94-2.151-4.623
					c-1.865-0.676-3.937,0.29-4.612,2.157C76.063,33.17,77.028,35.237,78.901,35.915z"/>
			</g>
			<g>
				<path fill="#FFFFFF" d="M79,48.805c1.521,1.279,3.797,1.08,5.071-0.443c1.285-1.523,1.087-3.799-0.44-5.081
					c-1.524-1.274-3.801-1.076-5.075,0.448C77.271,45.254,77.473,47.527,79,48.805z"/>
			</g>
			<g>
				<path fill="#FFFFFF" d="M74.686,60.953c0.991,1.719,3.198,2.313,4.917,1.314c1.729-0.992,2.32-3.195,1.321-4.92
					c-0.995-1.719-3.201-2.314-4.92-1.316C74.274,57.023,73.687,59.227,74.686,60.953z"/>
			</g>
			<g>
				<path fill="#FFFFFF" d="M66.475,70.889c0.345,1.961,2.214,3.27,4.172,2.924c1.964-0.346,3.275-2.219,2.927-4.18
					c-0.35-1.953-2.219-3.268-4.176-2.914C67.433,67.057,66.126,68.928,66.475,70.889z"/>
			</g>
			<g>
				<path fill="#FFFFFF" d="M55.363,77.418c-0.35,1.961,0.962,3.834,2.919,4.172c1.965,0.354,3.834-0.963,4.179-2.924
					c0.342-1.953-0.966-3.826-2.927-4.17C57.573,74.15,55.704,75.457,55.363,77.418z"/>
			</g>
			<g>
				<path fill="#FFFFFF" d="M42.687,79.754c-0.999,1.727-0.408,3.93,1.314,4.92c1.727,1,3.934,0.412,4.929-1.314
					c0.991-1.725,0.403-3.928-1.322-4.92C45.882,77.441,43.679,78.027,42.687,79.754z"/>
			</g>
			<g>
				<path fill="#FFFFFF" d="M29.974,77.617c-1.528,1.277-1.726,3.555-0.444,5.074c1.278,1.527,3.555,1.727,5.079,0.441
					c1.52-1.279,1.722-3.547,0.44-5.076C33.771,76.529,31.498,76.332,29.974,77.617z"/>
			</g>
			<g>
				<path fill="#FFFFFF" d="M18.763,71.256c-1.873,0.676-2.838,2.748-2.156,4.621c0.68,1.865,2.75,2.834,4.62,2.15
					c1.869-0.682,2.835-2.746,2.152-4.619C22.7,71.535,20.632,70.574,18.763,71.256z"/>
			</g>
			<g>
				<path fill="#FFFFFF" d="M10.402,61.445c-1.99,0-3.606,1.615-3.606,3.605s1.616,3.6,3.606,3.6s3.602-1.609,3.602-3.6
					S12.392,61.445,10.402,61.445z"/>
			</g>
		</g>
	</g>
</g>
</svg>
