<?xml version="1.0" encoding="utf-8"?>
<!-- Generator: Adobe Illustrator 15.1.0, SVG Export Plug-In . SVG Version: 6.00 Build 0)  -->
<!DOCTYPE svg PUBLIC "-//W3C//DTD SVG 1.1//EN" "http://www.w3.org/Graphics/SVG/1.1/DTD/svg11.dtd">
<svg version="1.1" xmlns="http://www.w3.org/2000/svg" xmlns:xlink="http://www.w3.org/1999/xlink" x="0px" y="0px" width="85.04px"
	 height="85.04px" viewBox="0 0 85.04 85.04" enable-background="new 0 0 85.04 85.04" xml:space="preserve">
<g id="Слой_1">
	<g>
		<path fill="#1C1C1C" d="M0.001,69.912v11.48H85.04v-11.48H0.001z M1.702,71.613h3.669l-3.669,3.669V71.613z M1.702,79.691v-2.605
			l5.473-5.473h3.724l-8.079,8.078H1.702z M4.623,79.691l8.079-8.078h3.511l-8.079,8.078H4.623z M9.938,79.691l8.079-8.078h2.873
			l-8.079,8.078H9.938z M14.615,79.691l8.079-8.078h3.299l-8.079,8.078H14.615z M19.718,79.691l8.079-8.078h3.511l-8.079,8.078
			H19.718z M25.033,79.691l8.079-8.078h2.874l-8.079,8.078H25.033z M29.71,79.691l8.079-8.078h3.724l-8.079,8.078H29.71z
			 M35.237,79.691l8.079-8.078h3.511l-8.079,8.078H35.237z M40.552,79.691l8.079-8.078h2.874l-8.079,8.078H40.552z M45.229,79.691
			l8.079-8.078h3.298l-8.078,8.078H45.229z M50.332,79.691l8.078-8.078h3.512l-8.079,8.078H50.332z M55.646,79.691l8.079-8.078
			h2.873l-8.078,8.078H55.646z M60.324,79.691l8.078-8.078h3.618l-8.079,8.078H60.324z M65.745,79.691l8.079-8.078h3.511
			l-8.078,8.078H65.745z M71.061,79.691l8.078-8.078h2.874l-8.079,8.078H71.061z M83.34,79.691h-2.394l2.394-2.393V79.691z
			 M83.34,75.495l-4.197,4.196h-3.405l7.603-7.602V75.495z"/>
		<path fill="#1C1C1C" d="M23.229,47.449c-3.398,0.223-6.094,3.034-6.094,6.5c0,3.614,2.918,6.545,6.52,6.545
			c3.601,0,6.519-2.931,6.519-6.545c0-3.176-2.254-5.82-5.244-6.414V35.88h17.008v32.44H30.316v1.708h26.788V68.32H45.339V35.88
			h28.394L62.962,3.44H24.601L13.83,35.88h9.399V47.449z M28.472,53.949c0,2.666-2.161,4.838-4.818,4.838
			c-2.658,0-4.818-2.172-4.818-4.838s2.161-4.837,4.818-4.837C26.312,49.112,28.472,51.283,28.472,53.949z M25.827,5.147h35.909
			l9.639,29.026H44.063H16.188L25.827,5.147z"/>
	</g>
</g>
<g id="Режим_изоляции">
</g>
</svg>
