<!-- Generated by IcoMoon.io -->
<svg version="1.1" xmlns="http://www.w3.org/2000/svg" width="578" height="1024" viewBox="0 0 578 1024">
<title></title>
<g id="icomoon-ignore">
</g>
<path d="M487.026 491.301c39.086-52.814 83.338-112.707 83.338-224.078 0-259.42-240.069-267.198-269.884-267.198-0.048 0-0.048 0-0.132 0l-37.1-0.024c-26.347 0-257.565 7.514-257.565 267.223 0 111.371 44.264 171.265 83.351 224.078 28.37 38.388 52.91 71.586 54.307 118.475 3.48 116.982 0 318.338 0 320.349l-0.084 4.684 2.396 3.925c0.903 1.397 21.759 34.619 64.939 38.918 2.107 0.205 4.214 0.361 6.37 0.578 2.312 3.396 31.681 44.589 75.283 45.709 0.662 0.036 1.276 0.036 1.903 0.036 27.057 0 52.404-15.305 75.355-45.492l-1.698-1.276c41.483-5.286 61.712-37.1 62.579-38.46l2.396-3.925-0.084-4.684c0-2.023-3.468-203.379 0-320.349 1.421-46.901 25.949-80.099 54.331-118.487zM293.244 992.223c-11.126-0.253-21.169-5.286-29.357-11.295 10.837 0.277 18.195 0.325 18.857 0.325h17.617c0.662 0 9.344-0.048 22.71-0.626-10.103 7.67-20.145 11.897-29.827 11.596zM400.954 608.849c-3.155 106.916-0.59 283.587-0.096 316.496-5.033 6.129-17.785 18.664-38.544 20.723-33.993 3.396-61.664 3.432-61.965 3.432h-17.617c-0.337 0-34.908-0.036-68.997-3.432-20.844-2.059-33.583-14.642-38.544-20.675 0.494-32.921 3.059-209.58-0.084-316.544-1.746-56.884-30.284-95.512-60.556-136.417-37.882-51.272-77.101-104.303-77.101-205.209 0-228.546 202.139-235.433 227.546-235.433 0.036 0 0.036 0 0.12 0l37.184-0.024c24.191 0 236.312 6.623 236.312 235.457 0 100.907-39.219 153.937-77.089 205.209-30.296 40.893-58.834 79.533-60.568 136.417z"></path>
<path d="M302.179 192.385h-31.765v485.316h-93.562v31.777h222.356v-31.777h-97.030z"></path>
<path d="M176.852 769.493h222.368v31.765h-222.368v-31.765z"></path>
<path d="M176.852 854.192h222.368v31.765h-222.368v-31.765z"></path>
</svg>
