<?xml version="1.0" encoding="utf-8"?>
<!-- Generator: Adobe Illustrator 15.1.0, SVG Export Plug-In . SVG Version: 6.00 Build 0)  -->
<!DOCTYPE svg PUBLIC "-//W3C//DTD SVG 1.1//EN" "http://www.w3.org/Graphics/SVG/1.1/DTD/svg11.dtd">
<svg version="1.1" id="Слой_1" xmlns="http://www.w3.org/2000/svg" xmlns:xlink="http://www.w3.org/1999/xlink" x="0px" y="0px"
	 width="141.732px" height="141.732px" viewBox="0 0 141.732 141.732" enable-background="new 0 0 141.732 141.732"
	 xml:space="preserve">
<path fill="#FFFFFF" d="M139.822,130.506l-21.686-21.854l0.098-7.035c8.162-10.652,13.066-23.93,13.066-38.382
	C131.3,28.311,102.986,0,68.064,0C33.14,0,4.829,28.311,4.829,63.235c0,34.921,28.312,63.236,63.236,63.236
	c11.126,0,21.57-2.897,30.653-7.943c2.756-0.244,6.44-0.535,9.868-0.797l21.881,22.053c1.292,1.3,2.985,1.948,4.678,1.948
	c1.678,0,3.355-0.636,4.642-1.911C142.365,137.257,142.385,133.086,139.822,130.506z M68.064,113.297
	c-27.604,0-50.062-22.458-50.062-50.062c0-27.604,22.458-50.062,50.062-50.062s50.062,22.458,50.062,50.062
	C118.126,90.839,95.668,113.297,68.064,113.297z"/>
</svg>
