<?xml version="1.0" encoding="utf-8"?>
<!-- Generator: Adobe Illustrator 15.1.0, SVG Export Plug-In . SVG Version: 6.00 Build 0)  -->
<!DOCTYPE svg PUBLIC "-//W3C//DTD SVG 1.1//EN" "http://www.w3.org/Graphics/SVG/1.1/DTD/svg11.dtd">
<svg version="1.1" xmlns="http://www.w3.org/2000/svg" xmlns:xlink="http://www.w3.org/1999/xlink" x="0px" y="0px" width="85.04px"
	 height="85.04px" viewBox="0 0 85.04 85.04" enable-background="new 0 0 85.04 85.04" xml:space="preserve">
<g id="Слой_1">
	<path fill="#1C1C1C" d="M85.039,5.638H0v11.48l33.826-0.036c0.019,0.079,1.889,7.904,8.482,8.501l0.104,46.447
		c-0.329,0.848-2.715,6.209-10.417,6.209c-7.821,0-9.487-5.902-9.673-6.686v-2.639l3.189-2.127v-3.863l0.018-0.012
		c7.978-4.875,7.958-11.107,7.954-11.355V41.142h-4.981c-0.342-1.086-2.242-6.272-7.35-6.272c-4.837,0-6.878,4.816-7.384,6.272
		H8.504v10.403C8.5,51.807,8.48,58.039,16.458,62.914l0.204,0.125h0.133v3.678l3.83,2.234l0.014,2.867
		c0.016,0.078,1.736,8.123,11.357,8.123c6.705,0,9.93-3.658,11.268-5.863c1.339,2.205,4.563,5.863,11.268,5.863
		c9.62,0,11.341-8.045,11.374-8.291v-2.701l3.827-2.232v-3.678h0.133l0.204-0.125c7.978-4.875,7.957-11.107,7.954-11.355V41.142
		h-5.265c-0.507-1.456-2.548-6.272-7.385-6.272c-5.107,0-7.008,5.186-7.35,6.272h-4.981v10.403
		c-0.003,0.262-0.023,6.494,7.954,11.369l0.019,0.012v3.863l3.188,2.127v2.639c-0.186,0.783-1.852,6.686-9.673,6.686
		c-7.746,0-10.082-5.32-10.417-6.207l-0.017-7.504l0.121-38.945c6.594-0.598,8.462-8.354,8.482-8.433l32.338-0.033V5.638z
		 M21.153,36.571c3.405,0,5.005,3.169,5.547,4.571H15.593C16.239,39.606,17.923,36.571,21.153,36.571z M10.205,51.559v-8.716h21.579
		v8.728c0.002,0.223-0.041,5.453-6.938,9.768h-7.702C10.245,57.023,10.203,51.793,10.205,51.559z M18.496,63.039h5.315v2.84
		l-2.369,1.58l-2.946-1.719V63.039z M65.374,36.571c3.216,0,4.906,3.034,5.558,4.571H59.826
		C60.368,39.741,61.969,36.571,65.374,36.571z M54.744,51.559v-8.716h21.578v8.728c0.002,0.223-0.039,5.453-6.938,9.768h-7.7
		C54.784,57.023,54.742,51.793,54.744,51.559z M62.717,63.039h5.314v2.701l-2.946,1.719l-2.368-1.58V63.039z M56.605,7.339
		l-8.078,8.079h-3.299l8.079-8.079H56.605z M51.504,7.339l-8.079,8.079h-2.874l8.079-8.079H51.504z M46.826,7.339l-8.079,8.079
		h-3.511l8.079-8.079H46.826z M1.701,7.339H5.37l-3.669,3.669V7.339z M1.701,15.417v-2.606l5.473-5.473h3.724l-8.079,8.079H1.701z
		 M4.622,15.417l8.079-8.079h3.511l-8.079,8.079H4.622z M9.937,15.417l8.079-8.079h2.873l-8.079,8.079H9.937z M14.614,15.417
		l8.079-8.079h3.299l-8.079,8.079H14.614z M19.717,15.417l8.079-8.079h3.511l-8.079,8.079H19.717z M25.032,15.417l8.079-8.079h2.874
		l-8.079,8.079H25.032z M29.709,15.417l8.079-8.079h3.724l-8.079,8.079H29.709z M43.37,23.921h-0.213
		c-5.655,0-7.438-5.995-7.653-6.803h15.52C50.808,17.926,49.025,23.921,43.37,23.921z M50.331,15.417l8.078-8.079h3.512
		l-8.079,8.079H50.331z M55.646,15.417l8.079-8.079h2.873l-8.078,8.079H55.646z M60.323,15.417l8.078-8.079h3.618l-8.079,8.079
		H60.323z M65.744,15.417l8.079-8.079h3.511l-8.078,8.079H65.744z M71.06,15.417l8.078-8.079h2.874l-8.079,8.079H71.06z
		 M83.339,15.417h-2.394l2.394-2.394V15.417z M83.339,11.22l-4.197,4.197h-3.405l7.603-7.602V11.22z"/>
</g>
<g id="Режим_изоляции">
</g>
</svg>
