<?xml version="1.0" encoding="utf-8"?>
<!-- Generator: Adobe Illustrator 15.1.0, SVG Export Plug-In . SVG Version: 6.00 Build 0)  -->
<!DOCTYPE svg PUBLIC "-//W3C//DTD SVG 1.1//EN" "http://www.w3.org/Graphics/SVG/1.1/DTD/svg11.dtd">
<svg version="1.1" id="Слой_1" xmlns="http://www.w3.org/2000/svg" xmlns:xlink="http://www.w3.org/1999/xlink" x="0px" y="0px"
	 width="141.732px" height="141.732px" viewBox="0 0 141.732 141.732" enable-background="new 0 0 141.732 141.732"
	 xml:space="preserve">
<path fill="#FFFFFF" d="M137.009,60.087c0-4.279-3.568-7.748-7.967-7.748h-28.939L99.8,44.844c0-5.479-4.564-9.918-10.191-9.918
	h-5.813c0.01-4.703-0.73-18.165-9.031-26.988C69.812,2.673,63.195,0,55.101,0C48.477,0,42.833,2.33,38.322,6.928
	c-5.8,5.912-9.406,15.332-10.856,27.998H15.288c-5.628,0-10.192,4.438-10.192,9.918L0,131.815c0,5.479,4.563,9.918,10.192,9.918
	h84.512c4.17,0,7.729-2.448,9.301-5.942h29.023c4.398,0,7.963-3.464,7.963-7.743L137.009,60.087z M118.537,62.531
	c-2.109,10.312-7.021,23.942-16.457,23.942c-10.008,0-15.074-14.298-17.363-23.942H118.537z M45.595,14.069
	c2.561-2.607,5.668-3.876,9.505-3.876c5.23,0,9.227,1.537,12.215,4.702c5.825,6.161,6.293,16.677,6.288,20.031H37.718
	C39.342,22.459,43.075,16.642,45.595,14.069z M15.271,45.442l0.017-0.299v-0.025h11.494c-0.035,1.533-0.045,3.101-0.03,4.708
	c-5.046,2.12-8.597,7.111-8.597,12.919c0,7.729,6.285,14.015,14.014,14.015c7.729,0,14.014-6.286,14.014-14.015
	c0-6.051-3.874-11.167-9.256-13.128c-0.012-1.563,0-3.061,0.037-4.499h52.646v0.025l0.02,0.299l0.402,6.897H70.976
	c-4.402,0-7.968,3.469-7.968,7.748l-3.981,67.96c0,1.259,0.338,2.434,0.888,3.483l-49.688-0.01L15.271,45.442z M35.991,62.745
	c0,2.105-1.714,3.822-3.822,3.822c-2.107,0-3.822-1.717-3.822-3.822c0-2.104,1.714-3.821,3.822-3.821
	C34.276,58.923,35.991,60.64,35.991,62.745z M69.381,125.599l3.695-63.068h1.157c2.556,12.023,9.718,34.135,27.847,34.135
	c15.059,0,22.066-15.129,25.271-27.202l3.289,56.136H69.381z"/>
</svg>
