<?xml version="1.0" encoding="utf-8"?>
<!-- Generator: Adobe Illustrator 15.1.0, SVG Export Plug-In . SVG Version: 6.00 Build 0)  -->
<!DOCTYPE svg PUBLIC "-//W3C//DTD SVG 1.1//EN" "http://www.w3.org/Graphics/SVG/1.1/DTD/svg11.dtd">
<svg version="1.1" xmlns="http://www.w3.org/2000/svg" xmlns:xlink="http://www.w3.org/1999/xlink" x="0px" y="0px" width="85.04px"
	 height="85.04px" viewBox="0 0 85.04 85.04" enable-background="new 0 0 85.04 85.04" xml:space="preserve">
<g id="Слой_1">
</g>
<g id="Режим_изоляции">
	<path fill="#FFFFFF" d="M83.007,55.911V35.177h-2.666c0.96-1.113,1.525-2.378,1.652-3.788c0.349-3.83-2.633-7.231-2.761-7.374
		l-0.783-0.881l-0.795,0.868c-2.102,2.294-3.063,4.644-2.849,6.983c0.166,1.848,1.035,3.266,1.8,4.19h-2.813v20.734h-1.861v1.063
		c0,2.925,1.513,6.092,3.877,7.457l-4.671,5.516H60.678v-4.854c4.979-0.338,6.147-7.643,6.197-7.961l0.183-1.221h-2.032V35.177
		h-2.669c0.963-1.113,1.528-2.378,1.655-3.788c0.347-3.83-2.636-7.231-2.763-7.374l-0.781-0.881l-0.798,0.868
		c-2.102,2.294-3.063,4.644-2.849,6.983c0.169,1.848,1.038,3.266,1.8,4.19h-2.811v20.734h-1.861v1.063
		c0,3.207,1.828,6.685,4.603,7.775v5.197H46.324c-0.543-1.263-1.656-2.212-3.013-2.55v-2.365c4.469-0.86,5.532-7.592,5.579-7.899
		l0.183-1.221h-2.032V35.177h-2.666c0.963-1.113,1.525-2.378,1.652-3.788c0.336-3.705-2.417-6.98-2.716-7.321v-3.552l9.393-6.07
		V8.95H31.792v5.496l9.393,6.07v3.852h0.216c-1.877,2.179-2.763,4.402-2.564,6.619c0.169,1.848,1.041,3.266,1.8,4.19h-2.811v20.734
		h-1.861v1.063c0,3.442,2.096,7.214,5.22,7.986v2.437c-1.357,0.338-2.47,1.287-3.013,2.55H25.413V65.01
		c4.392-0.937,5.449-7.573,5.494-7.878l0.183-1.221h-2.032V35.177h-2.664c0.961-1.113,1.523-2.378,1.65-3.788
		c0.349-3.83-2.63-7.231-2.758-7.374l-0.784-0.881l-0.794,0.868c-2.104,2.294-3.063,4.644-2.852,6.983
		c0.166,1.848,1.038,3.266,1.8,4.19h-2.813v20.734h-1.86v1.063c0,3.473,2.137,7.271,5.305,8v4.973h-10.53l-4.428-5.225
		c3.639-1.576,4.552-7.308,4.597-7.59l0.183-1.221h-2.032V35.177H8.409c0.961-1.113,1.525-2.378,1.653-3.788
		c0.349-3.83-2.633-7.231-2.761-7.374l-0.783-0.881l-0.795,0.868c-2.102,2.294-3.063,4.644-2.849,6.983
		c0.166,1.848,1.036,3.266,1.8,4.19H1.86v20.734H0v1.063c0,3.655,2.37,7.665,5.82,8.072l5.95,7.027h26.086
		c0.202,2.257,2.083,4.04,4.392,4.04c2.31,0,4.189-1.783,4.392-4.04h25.482l5.917-6.986c0.092,0.006,0.178,0.039,0.271,0.039
		c5.283,0,6.496-7.667,6.546-7.994l0.183-1.221H83.007z M78.391,26.441c0.715,1.09,1.656,2.916,1.484,4.766
		c-0.103,1.083-0.562,2.032-1.409,2.885c-0.59-0.652-1.409-1.809-1.545-3.298C76.793,29.39,77.289,27.929,78.391,26.441z
		 M75.918,37.304h4.962v18.075h-4.962V37.304z M60.407,26.441c0.714,1.09,1.655,2.916,1.483,4.766
		c-0.1,1.083-0.562,2.032-1.406,2.885c-0.593-0.652-1.412-1.809-1.545-3.298C58.812,29.39,59.305,27.929,60.407,26.441z
		 M57.937,37.304h4.962v18.075h-4.962V37.304z M56.159,58.037h8.335c-0.493,1.803-1.712,4.962-4.165,4.962
		C58.233,62.999,56.55,60.523,56.159,58.037z M33.919,11.076h16.658v2.212l-8.329,5.383l-8.329-5.383V11.076z M42.425,26.441
		c0.714,1.09,1.656,2.916,1.484,4.766c-0.1,1.083-0.564,2.032-1.409,2.885c-0.59-0.652-1.409-1.809-1.542-3.298
		C40.831,29.39,41.323,27.929,42.425,26.441z M39.953,37.304h4.962v18.075h-4.962V37.304z M24.444,26.441
		c0.714,1.09,1.656,2.916,1.484,4.766c-0.103,1.083-0.565,2.032-1.412,2.885c-0.587-0.652-1.407-1.809-1.542-3.298
		C22.846,29.39,23.342,27.929,24.444,26.441z M21.969,37.304h4.962v18.075h-4.962V37.304z M20.196,58.037h8.329
		c-0.493,1.803-1.706,4.962-4.165,4.962C22.268,62.999,20.584,60.523,20.196,58.037z M6.46,26.441
		c0.714,1.09,1.656,2.916,1.484,4.766c-0.103,1.083-0.562,2.032-1.409,2.885c-0.59-0.652-1.41-1.809-1.545-3.298
		C4.862,29.39,5.358,27.929,6.46,26.441z M3.987,37.304h4.962v18.075H3.987V37.304z M2.212,58.037h8.332
		c-0.493,1.803-1.708,4.962-4.165,4.962C4.286,62.999,2.603,60.523,2.212,58.037z M38.178,58.037h8.332
		c-0.493,1.803-1.709,4.962-4.165,4.962C40.249,62.999,38.565,60.523,38.178,58.037z M42.248,73.986
		c-1.271,0-2.304-1.033-2.304-2.304c0-1.271,1.033-2.304,2.304-2.304s2.304,1.032,2.304,2.304
		C44.552,72.953,43.519,73.986,42.248,73.986z M78.311,62.999c-2.093,0-3.776-2.476-4.167-4.962h8.332
		C81.982,59.84,80.767,62.999,78.311,62.999z"/>
</g>
</svg>
