<?xml version="1.0" encoding="utf-8"?>
<!-- Generator: Adobe Illustrator 15.1.0, SVG Export Plug-In . SVG Version: 6.00 Build 0)  -->
<!DOCTYPE svg PUBLIC "-//W3C//DTD SVG 1.1//EN" "http://www.w3.org/Graphics/SVG/1.1/DTD/svg11.dtd">
<svg version="1.1" id="Слой_1" xmlns="http://www.w3.org/2000/svg" xmlns:xlink="http://www.w3.org/1999/xlink" x="0px" y="0px"
	 width="141.732px" height="141.732px" viewBox="0 0 141.732 141.732" enable-background="new 0 0 141.732 141.732"
	 xml:space="preserve">
<path fill="none" d="M80.534,54.191L71.15,34.079L61.762,54.19c-1.532,3.284-4.588,5.576-8.174,6.132l-22.192,3.411l16.458,16.969
	c2.374,2.441,3.467,5.911,2.921,9.278l-3.755,23.163l18.859-10.484c3.2-1.784,7.313-1.789,10.53-0.009l18.876,10.492l-3.764-23.153
	c-0.546-3.373,0.548-6.846,2.927-9.29l16.453-16.966l-22.188-3.411C85.125,59.766,82.068,57.474,80.534,54.191z"/>
<path fill="#7F7F7F" d="M134.191,50.435l-39.857-6.133L76.446,5.97C75.49,3.924,73.411,2.6,71.15,2.6
	c-2.26,0-4.338,1.322-5.293,3.37L47.967,44.302l-39.86,6.132c-2.169,0.336-3.953,1.838-4.654,3.919
	c-0.697,2.079-0.181,4.351,1.347,5.926l29.035,29.929l-6.866,42.351c-0.354,2.193,0.593,4.438,2.413,5.715
	c1.785,1.259,4.26,1.394,6.202,0.319l35.569-19.771l35.585,19.78c1.914,1.063,4.407,0.935,6.185-0.321
	c1.857-1.301,2.78-3.494,2.42-5.729l-6.875-42.341l29.031-29.928c1.532-1.576,2.049-3.847,1.351-5.928
	C138.149,52.273,136.365,50.772,134.191,50.435z"/>
</svg>
