<?xml version="1.0" encoding="utf-8"?>
<!-- Generator: Adobe Illustrator 15.1.0, SVG Export Plug-In . SVG Version: 6.00 Build 0)  -->
<!DOCTYPE svg PUBLIC "-//W3C//DTD SVG 1.1//EN" "http://www.w3.org/Graphics/SVG/1.1/DTD/svg11.dtd">
<svg version="1.1" id="Слой_1" xmlns="http://www.w3.org/2000/svg" xmlns:xlink="http://www.w3.org/1999/xlink" x="0px" y="0px"
	 width="85.04px" height="85.04px" viewBox="0 0 85.04 85.04" enable-background="new 0 0 85.04 85.04" xml:space="preserve">
<g>
	<path fill="#FFFFFF" d="M82.813,57.783c0-6.623-5.37-11.992-11.993-11.992S58.828,51.16,58.828,57.783
		c0,6.467,5.127,11.7,11.536,11.949c-0.521,1.9-2.872,8.473-10.531,8.041c-8.307-0.359-13.465-4.297-15.069-11.329
		c0.023-0.133,0.068-0.245,0.092-0.378c0.059-0.334-0.031-0.654-0.201-0.92v-2.348c0-0.045-0.02-0.086-0.027-0.13
		c6.014-0.647,10.712-5.679,10.712-11.863c0-6.175-4.685-11.2-10.685-11.859V12.014c5.854-1.005,9.353-9.834,9.506-10.231
		c0.156-0.404,0.103-0.857-0.14-1.213C53.775,0.213,53.373,0,52.94,0H33.752c-0.457,0-0.879,0.237-1.114,0.625
		c-0.239,0.389-0.259,0.872-0.051,1.278c2.995,5.867,6.167,9.219,9.451,10.015v27.028c-6,0.659-10.685,5.685-10.685,11.859
		c0,6.185,4.698,11.216,10.712,11.863c-0.007,0.044-0.027,0.085-0.027,0.13v2.221c-0.109,0.232-0.171,0.488-0.126,0.757
		c0.03,0.181,0.092,0.334,0.126,0.511v0.311c-1.571,7.121-6.743,11.104-15.104,11.465c-8.235,0.449-10.375-7.363-10.623-8.419
		c6-0.661,10.681-5.687,10.681-11.86c0-6.623-5.37-11.992-11.993-11.992c-6.624,0-11.993,5.369-11.993,11.992
		c0,6.184,4.699,11.217,10.712,11.863c-0.014,0.127-0.027,0.249-0.003,0.379c0.021,0.108,2.208,10.666,12.64,10.666
		c0.228,0,0.46-0.002,0.695-0.014c6.875-0.299,11.966-2.902,14.988-7.402V83.73c0,0.723,0.586,1.309,1.308,1.309
		c0.723,0,1.309-0.586,1.309-1.309V72.873c3.012,4.568,8.13,7.213,15.063,7.516c0.235,0.01,0.467,0.014,0.695,0.014
		c10.429,0,12.619-10.555,12.64-10.664c0.014-0.064-0.003-0.122,0-0.188C78.605,68.506,82.813,63.644,82.813,57.783z M5.624,57.783
		c0-5.168,4.205-9.376,9.376-9.376s9.376,4.208,9.376,9.376c0,5.169-4.204,9.377-9.376,9.377S5.624,62.952,5.624,57.783z
		 M35.946,2.617h14.967c-1.438,2.836-4.181,6.881-7.342,6.881C41.162,9.498,38.546,7.128,35.946,2.617z M33.97,50.806
		c0-5.17,4.204-9.376,9.375-9.376c5.172,0,9.377,4.206,9.377,9.376c0,5.169-4.205,9.376-9.377,9.376
		C38.174,60.182,33.97,55.975,33.97,50.806z M70.82,67.16c-5.172,0-9.376-4.208-9.376-9.377c0-5.168,4.204-9.376,9.376-9.376
		s9.376,4.208,9.376,9.376C80.196,62.952,75.992,67.16,70.82,67.16z"/>
	<path fill="#FFFFFF" d="M15.327,53.971c-0.511-0.511-1.339-0.511-1.85,0l-1.854,1.848c-0.511,0.51-0.515,1.342-0.003,1.853
		c0.255,0.256,0.593,0.382,0.927,0.382s0.667-0.126,0.923-0.382l1.853-1.847C15.834,55.313,15.838,54.482,15.327,53.971z"/>
	<path fill="#FFFFFF" d="M69.298,53.971l-1.854,1.848c-0.512,0.51-0.515,1.342-0.004,1.853c0.256,0.256,0.593,0.382,0.927,0.382
		s0.668-0.126,0.924-0.382l1.854-1.847c0.511-0.511,0.514-1.342,0.003-1.854C70.637,53.46,69.809,53.46,69.298,53.971z"/>
	<path fill="#FFFFFF" d="M43.237,46.994c-0.511-0.512-1.339-0.51-1.85-0.002l-1.854,1.848c-0.511,0.512-0.514,1.343-0.003,1.854
		c0.256,0.256,0.593,0.382,0.927,0.382s0.668-0.126,0.923-0.382l1.854-1.847C43.745,48.336,43.748,47.504,43.237,46.994z"/>
</g>
</svg>
