<!-- Generated by IcoMoon.io -->
<svg version="1.1" xmlns="http://www.w3.org/2000/svg" width="1024" height="1024" viewBox="0 0 1024 1024">
<title></title>
<g id="icomoon-ignore">
</g>
<path d="M551.809 521.428c0 23.968-19.43 43.397-43.397 43.397s-43.397-19.43-43.397-43.397c0-23.968 19.43-43.397 43.397-43.397s43.397 19.43 43.397 43.397z"></path>
<path d="M470.722 383.687c0 23.968-19.43 43.397-43.397 43.397s-43.397-19.43-43.397-43.397c0-23.968 19.43-43.397 43.397-43.397s43.397 19.43 43.397 43.397z"></path>
<path d="M406.554 519.526c0 23.968-19.43 43.397-43.397 43.397s-43.397-19.43-43.397-43.397c0-23.968 19.43-43.397 43.397-43.397s43.397 19.43 43.397 43.397z"></path>
<path d="M470.674 659.146c0 23.968-19.43 43.397-43.397 43.397s-43.397-19.43-43.397-43.397c0-23.968 19.43-43.397 43.397-43.397s43.397 19.43 43.397 43.397z"></path>
<path d="M632.944 383.687c0 23.968-19.43 43.397-43.397 43.397s-43.397-19.43-43.397-43.397c0-23.968 19.43-43.397 43.397-43.397s43.397 19.43 43.397 43.397z"></path>
<path d="M610.318 519.526c0 23.962 19.459 43.409 43.421 43.409s43.373-19.447 43.373-43.409c0-23.962-19.399-43.385-43.373-43.385s-43.421 19.423-43.421 43.385z"></path>
<path d="M632.992 659.146c0 23.968-19.43 43.397-43.397 43.397s-43.397-19.43-43.397-43.397c0-23.968 19.43-43.397 43.397-43.397s43.397 19.43 43.397 43.397z"></path>
<path d="M808.411 381.808c0 23.968-19.43 43.397-43.397 43.397s-43.397-19.43-43.397-43.397c0-23.968 19.43-43.397 43.397-43.397s43.397 19.43 43.397 43.397z"></path>
<path d="M785.773 517.647c0 23.962 19.447 43.433 43.409 43.433s43.385-19.471 43.385-43.433c0-23.962-19.411-43.373-43.385-43.373s-43.409 19.411-43.409 43.373z"></path>
<path d="M808.447 657.291c0 23.968-19.43 43.397-43.397 43.397s-43.397-19.43-43.397-43.397c0-23.968 19.43-43.397 43.397-43.397s43.397 19.43 43.397 43.397z"></path>
<path d="M695.234 778.018c0 23.968-19.43 43.397-43.397 43.397s-43.397-19.43-43.397-43.397c0-23.968 19.43-43.397 43.397-43.397s43.397 19.43 43.397 43.397z"></path>
<path d="M515.998 786.050c-23.962 0-43.421 19.447-43.421 43.409s19.459 43.373 43.421 43.373c23.974 0 43.373-19.399 43.373-43.373s-19.399-43.409-43.373-43.409z"></path>
<path d="M419.751 778.067c0 23.968-19.43 43.397-43.397 43.397s-43.397-19.43-43.397-43.397c0-23.968 19.43-43.397 43.397-43.397s43.397 19.43 43.397 43.397z"></path>
<path d="M302.781 661.072c0 23.968-19.43 43.397-43.397 43.397s-43.397-19.43-43.397-43.397c0-23.968 19.43-43.397 43.397-43.397s43.397 19.43 43.397 43.397z"></path>
<path d="M238.624 525.258c0-23.962-19.459-43.421-43.421-43.421s-43.373 19.459-43.373 43.421c0 23.974 19.411 43.373 43.373 43.373s43.421-19.411 43.421-43.373z"></path>
<path d="M302.733 385.638c0 23.968-19.43 43.397-43.397 43.397s-43.397-19.43-43.397-43.397c0-23.968 19.43-43.397 43.397-43.397s43.397 19.43 43.397 43.397z"></path>
<path d="M415.958 264.875c0 23.968-19.43 43.397-43.397 43.397s-43.397-19.43-43.397-43.397c0-23.968 19.43-43.397 43.397-43.397s43.397 19.43 43.397 43.397z"></path>
<path d="M551.797 210.628c0 23.968-19.43 43.397-43.397 43.397s-43.397-19.43-43.397-43.397c0-23.968 19.43-43.397 43.397-43.397s43.397 19.43 43.397 43.397z"></path>
<path d="M691.429 264.838c0 23.968-19.43 43.397-43.397 43.397s-43.397-19.43-43.397-43.397c0-23.968 19.43-43.397 43.397-43.397s43.397 19.43 43.397 43.397z"></path>
<path d="M71.080 594.399c-22.505-8.188-47.491 3.456-55.619 25.913-8.224 22.554 3.36 47.479 25.913 55.619 22.505 8.236 47.443-3.36 55.583-25.913 8.26-22.457-3.456-47.479-25.877-55.619z"></path>
<path d="M69.888 439.21c-18.351-15.365-45.805-12.957-61.11 5.322-15.473 18.423-13.089 45.805 5.31 61.182 18.339 15.425 45.757 13.029 61.062-5.346 15.473-18.339 13.053-45.805-5.262-61.158z"></path>
<path d="M121.847 292.955c-11.981-20.711-38.605-27.84-59.256-15.871-20.82 12.005-27.936 38.557-15.919 59.292 11.981 20.783 38.557 27.876 59.208 15.846 20.832-11.909 27.948-38.544 15.967-59.268z"></path>
<path d="M220.719 173.312c-4.202-23.565-26.756-39.351-50.273-35.173-23.661 4.154-39.436 26.66-35.245 50.273 4.154 23.613 26.708 39.375 50.225 35.149 23.661-4.094 39.448-26.684 35.293-50.249z"></path>
<path d="M354.511 94.694c4.118-23.589-11.668-46.119-35.197-50.249-23.649-4.178-46.155 11.584-50.321 35.197s11.632 46.119 35.197 50.201c23.625 4.239 46.167-11.584 50.321-35.149z"></path>
<path d="M507.159 66.565c11.933-20.747 4.817-47.311-15.871-59.256-20.832-12.017-47.359-4.901-59.34 15.883-11.981 20.759-4.817 47.311 15.919 59.208 20.735 12.065 47.311 4.901 59.292-15.834z"></path>
<path d="M660.193 92.345c18.303-15.389 20.735-42.783 5.346-61.086-15.437-18.423-42.807-20.832-61.206-5.395-18.339 15.413-20.687 42.807-5.262 61.086 15.353 18.435 42.771 20.808 61.122 5.395z"></path>
<path d="M795.189 168.905c22.457-8.188 34.125-33.102 25.901-55.559-8.188-22.59-33.078-34.198-55.619-25.997-22.505 8.2-34.089 33.138-25.865 55.607 8.14 22.566 33.078 34.173 55.583 25.949z"></path>
<path d="M895.868 287.031c23.914 0 43.373-19.411 43.337-43.349 0.036-24.035-19.363-43.445-43.385-43.445-23.914 0.024-43.385 19.483-43.337 43.397-0.036 24.011 19.423 43.445 43.385 43.397z"></path>
<path d="M950.078 432.467c22.457 8.2 47.407-3.384 55.523-25.913 8.284-22.554-3.311-47.443-25.901-55.667-22.457-8.14-47.407 3.492-55.535 25.973-8.26 22.554 3.36 47.443 25.913 55.607z"></path>
<path d="M951.27 587.68c18.315 15.401 45.721 13.005 61.062-5.334 15.473-18.339 13.089-45.745-5.298-61.182-18.351-15.341-45.769-12.957-61.11 5.395-15.473 18.363-13.041 45.733 5.346 61.122z"></path>
<path d="M899.323 733.959c11.933 20.699 38.508 27.852 59.208 15.822 20.82-11.945 27.936-38.472 15.907-59.244-11.981-20.699-38.544-27.864-59.244-15.846-20.832 11.945-27.9 38.484-15.871 59.268z"></path>
<path d="M800.452 853.602c4.154 23.613 26.66 39.375 50.237 35.209 23.649-4.166 39.436-26.72 35.245-50.333-4.214-23.517-26.72-39.351-50.285-35.089-23.661 4.070-39.399 26.599-35.197 50.213z"></path>
<path d="M666.648 932.221c-4.214 23.613 11.584 46.167 35.149 50.237 23.661 4.263 46.167-11.596 50.321-35.209 4.118-23.517-11.632-46.070-35.245-50.213-23.613-4.166-46.119 11.572-50.225 35.185z"></path>
<path d="M514.011 960.349c-12.029 20.795-4.913 47.323 15.822 59.244 20.795 12.041 47.371 4.961 59.352-15.822 11.933-20.771 4.853-47.299-15.919-59.244-20.783-12.029-47.311-4.973-59.256 15.822z"></path>
<path d="M360.929 934.617c-18.399 15.377-20.783 42.807-5.346 61.098 15.389 18.387 42.807 20.795 61.158 5.31 18.303-15.401 20.735-42.711 5.298-61.122-15.389-18.387-42.759-20.759-61.11-5.286z"></path>
<path d="M225.933 858.021c-22.554 8.14-34.173 33.090-25.961 55.643 8.188 22.457 33.114 34.125 55.631 25.889 22.505-8.212 34.137-33.066 25.913-55.619-8.176-22.554-33.078-34.125-55.583-25.913z"></path>
<path d="M125.255 739.883c-23.962 0-43.421 19.447-43.421 43.409s19.459 43.349 43.421 43.349 43.373-19.375 43.373-43.349-19.411-43.409-43.373-43.409z"></path>
</svg>
