<?xml version="1.0" encoding="utf-8"?>
<!-- Generator: Adobe Illustrator 15.1.0, SVG Export Plug-In . SVG Version: 6.00 Build 0)  -->
<!DOCTYPE svg PUBLIC "-//W3C//DTD SVG 1.1//EN" "http://www.w3.org/Graphics/SVG/1.1/DTD/svg11.dtd">
<svg version="1.1" id="Слой_1" xmlns="http://www.w3.org/2000/svg" xmlns:xlink="http://www.w3.org/1999/xlink" x="0px" y="0px"
	 width="141.732px" height="141.732px" viewBox="0 0 141.732 141.732" enable-background="new 0 0 141.732 141.732"
	 xml:space="preserve">
<path fill="#FFFFFF" d="M133.691,50.935l-39.857-6.132L75.946,6.471C74.99,4.424,72.911,3.1,70.65,3.1
	c-2.26,0-4.338,1.323-5.293,3.371l-17.89,38.332L7.606,50.934c-2.169,0.336-3.953,1.838-4.654,3.919
	c-0.697,2.079-0.181,4.351,1.347,5.926l29.035,29.929l-6.866,42.35c-0.355,2.194,0.592,4.438,2.413,5.715
	c1.785,1.259,4.259,1.394,6.202,0.32l35.569-19.772l35.585,19.78c1.914,1.063,4.407,0.935,6.185-0.321
	c1.857-1.301,2.78-3.494,2.42-5.729l-6.875-42.341l29.031-29.929c1.532-1.576,2.049-3.847,1.35-5.928
	C137.649,52.773,135.865,51.272,133.691,50.935z"/>
</svg>
