<?xml version="1.0" encoding="utf-8"?>
<!-- Generator: Adobe Illustrator 15.1.0, SVG Export Plug-In . SVG Version: 6.00 Build 0)  -->
<!DOCTYPE svg PUBLIC "-//W3C//DTD SVG 1.1//EN" "http://www.w3.org/Graphics/SVG/1.1/DTD/svg11.dtd">
<svg version="1.1" xmlns="http://www.w3.org/2000/svg" xmlns:xlink="http://www.w3.org/1999/xlink" x="0px" y="0px" width="85.04px"
	 height="85.04px" viewBox="0 0 85.04 85.04" enable-background="new 0 0 85.04 85.04" xml:space="preserve">
<g id="Слой_1">
	<path fill="#FFFFFF" d="M61.689,1.408l-0.434-0.394H25.201L0,26.215v34.936l23.35,23.35l0.434,0.393h35.595l0.15,0.146l0.145-0.146
		h0.164l25.201-25.198V24.759L61.689,1.408z M66.008,45.471l13.145,13.217l-17.109,0.175v-9.555L66.008,45.471z M62.043,45.566
		v-4.08l2.068,2.079L62.043,45.566z M62.043,37.675v-9.559h18.029L66.043,41.696L62.043,37.675z M62.043,25.428V5.563l19.863,19.864
		H62.043z M26.822,53.186l6.131,5.971l-6.167,0.063L26.822,53.186z M26.843,49.455l0.063-10.977l10.548-10.362h11.291l10.611,10.669
		v9.382L48.162,59.002l-11.395,0.119L26.843,49.455z M24.2,41.133l-0.031,5.719l-2.905-2.833L24.2,41.133z M19.336,42.143
		L4.935,28.116h19.339l-0.053,9.229L19.336,42.143z M36.355,25.428h-9.379l0.108-19.084l14.185,14.26L36.355,25.428z M43.165,22.509
		l2.905,2.918h-5.88L43.165,22.509z M33.618,28.116l-6.691,6.574l0.035-6.574H33.618z M52.533,28.116h6.822v6.857L52.533,28.116z
		 M59.355,51.912v6.979l-7.287,0.069L59.355,51.912z M59.355,25.428h-9.496l-4.775-4.803L59.355,6.608V25.428z M43.186,18.719
		L28.246,3.702h30.23L43.186,18.719z M24.288,25.428h-19.7L24.4,5.616L24.288,25.428z M17.418,44.025L2.688,58.491V29.68
		L17.418,44.025z M19.346,45.903l4.802,4.679l-0.049,8.665L5.561,59.439L19.346,45.903z M26.772,61.907l8.914-0.091l4.77,4.647
		L26.671,79.805L26.772,61.907z M39.498,61.781l5.858-0.063l-2.967,2.877L39.498,61.781z M49.262,61.68l10.094-0.102V81.12
		L44.313,66.471L49.262,61.68z M62.043,61.55l17.52-0.182l-17.52,17.52V61.55z M67.939,43.602l14.412-13.95v28.441L67.939,43.602z
		 M4.788,62.135l19.297-0.2l-0.112,19.389L4.788,62.135z M28.054,82.205L42.381,68.34l14.236,13.865H28.054z"/>
</g>
<g id="Режим_изоляции">
</g>
</svg>
